<svg width="2592" height="2327" viewBox="0 0 2592 2327" fill="none" xmlns="http://www.w3.org/2000/svg">
<path d="M2392 0C2502.46 0 2592 89.5431 2592 200V2127C2592 2237.46 2502.46 2327 2392 2327H1520V1964H2323C2405.84 1964 2473 1896.84 2473 1814V263C2473 180.157 2405.84 113 2323 113H268C185.157 113 118 180.157 118 263V1814C118 1896.84 185.157 1964 268 1964H1072V2327H200C89.5431 2327 1.51442e-06 2237.46 0 2127V200C1.51442e-06 89.5431 89.5431 0 200 0H2392Z" fill="white"/>
<path d="M2236 206C2307.8 206 2366 264.203 2366 336V1721C2366 1792.8 2307.8 1851 2236 1851H1520V1509H2165C2220.23 1509 2265 1464.23 2265 1409V408C2265 352.772 2220.23 308 2165 308H427C371.772 308 327 352.772 327 408V1409C327 1464.23 371.772 1509 427 1509H1072V1851H355C283.203 1851 225 1792.8 225 1721V336C225 264.203 283.203 206 355 206H2236Z" fill="white"/>
<path d="M2100 411C2136.45 411 2166 440.549 2166 477V1339C2166 1375.45 2136.45 1405 2100 1405H1520V941H2023C2050.61 941 2073 918.614 2073 891V552C2073 524.386 2050.61 502 2023 502H569C541.386 502 519 524.386 519 552V891C519 918.614 541.386 941 569 941H1072V1405H492C455.549 1405 426 1375.45 426 1339V477C426 440.549 455.549 411 492 411H2100Z" fill="white"/>
</svg>
