<svg width="4059" height="4059" viewBox="0 0 4059 4059" fill="none" xmlns="http://www.w3.org/2000/svg">
<path d="M3126 866C3236.46 866 3326 955.543 3326 1066V2993C3326 3103.46 3236.46 3193 3126 3193H2254V2830H3057C3139.84 2830 3207 2762.84 3207 2680V1129C3207 1046.16 3139.84 979 3057 979H1002C919.157 979 852 1046.16 852 1129V2680C852 2762.84 919.157 2830 1002 2830H1806V3193H934C823.543 3193 734 3103.46 734 2993V1066C734 955.543 823.543 866 934 866H3126Z" fill="white"/>
<path d="M2970 1072C3041.8 1072 3100 1130.2 3100 1202V2587C3100 2658.8 3041.8 2717 2970 2717H2254V2375H2899C2954.23 2375 2999 2330.23 2999 2275V1274C2999 1218.77 2954.23 1174 2899 1174H1161C1105.77 1174 1061 1218.77 1061 1274V2275C1061 2330.23 1105.77 2375 1161 2375H1806V2717H1089C1017.2 2717 959 2658.8 959 2587V1202C959 1130.2 1017.2 1072 1089 1072H2970Z" fill="white"/>
<path d="M2834 1277C2870.45 1277 2900 1306.55 2900 1343V2205C2900 2241.45 2870.45 2271 2834 2271H2254V1807H2757C2784.61 1807 2807 1784.61 2807 1757V1418C2807 1390.39 2784.61 1368 2757 1368H1303C1275.39 1368 1253 1390.39 1253 1418V1757C1253 1784.61 1275.39 1807 1303 1807H1806V2271H1226C1189.55 2271 1160 2241.45 1160 2205V1343C1160 1306.55 1189.55 1277 1226 1277H2834Z" fill="white"/>
</svg>
